<?xml version="1.0" encoding="utf-8" ?><svg xmlns="http://www.w3.org/2000/svg" xmlns:xlink="http://www.w3.org/1999/xlink" width="1024" height="1024" viewBox="0 0 1024 1024"><path transform="scale(2 2)" d="M255.938 158.813C309.479 158.771 352.939 202.099 353.059 255.64C353.18 309.181 309.916 352.704 256.375 352.903C202.723 353.103 159.09 309.73 158.969 256.077C158.848 202.425 202.285 158.855 255.938 158.813Z"/><path fill="#F8C156" transform="scale(2 2)" d="M251.014 176.595C294.641 173.811 332.283 206.88 335.14 250.502C337.998 294.125 304.993 331.822 261.376 334.754C217.654 337.693 179.846 304.591 176.981 260.864C174.116 217.137 207.283 179.385 251.014 176.595Z"/><path transform="scale(2 2)" d="M387.016 246.854C401.737 246.543 417.62 246.85 432.429 246.852L446.985 246.85C472.543 246.873 464.467 265.516 452.562 265.212L392.865 265.234C387.804 265.236 381.034 266.175 377.73 261.646C372.013 253.81 378.2 247.312 387.016 246.854Z"/><path transform="scale(2 2)" d="M254.708 376.309C266.494 374.845 264.998 387.94 265.002 395.062L264.998 439.284C265 447.232 267.519 461.159 257.988 463.426C245.91 466.209 247.213 452.239 247.216 445.478L247.222 398.234C247.21 389.391 244.305 378.737 254.708 376.309Z"/><path transform="scale(2 2)" d="M60.6324 246.854L104.706 246.853C111.84 246.852 118.953 246.776 126.1 246.886C133.924 247.006 136.884 255.483 132.797 261.438C130.539 264.728 125.307 264.622 121.625 265.212L80.6718 265.219C74.9651 265.219 55.1309 266.341 50.9166 262.435C42.563 254.693 49.7615 247.077 60.6324 246.854Z"/><path transform="scale(2 2)" d="M162.136 340.307C167.618 337.999 174.115 346.9 170.531 352.697C168.995 355.181 166.238 357.648 164.176 359.784L131.25 393.188C127.385 397.06 122.625 403.518 117.21 404.818C108.625 404.626 103.671 396.318 108.992 390.271C111.424 387.507 114.126 384.968 116.724 382.357L129.903 368.934C136.29 362.418 154.383 341.054 162.136 340.307Z"/><path transform="scale(2 2)" d="M254.708 49.277C267.436 47.7909 265.01 62.0202 265.007 70.1431L265.023 114.931C264.993 121.956 266.828 131.181 257.988 133.472C244.587 134.15 247.225 122.017 247.219 112.788L247.217 68.827C247.221 61.0049 245.034 51.7176 254.708 49.277Z"/><path transform="scale(2 2)" d="M347.984 340.307C354.898 339.992 362.79 350.065 367.664 354.979L385.073 372.608C391.324 379.051 417.099 398.886 396.563 404.818C389.534 404.285 386.496 399.461 381.873 394.808L363.814 376.485C359.884 372.495 341.623 356.095 340.596 351.466C339.327 345.75 342.34 341.508 347.984 340.307Z"/><path transform="scale(2 2)" d="M113.948 107.257C123.178 106.95 135.367 123.251 142.21 129.997L160.35 147.961C165.043 152.653 174.454 158.983 171.264 166.154C169.992 169.014 168.198 170.463 165.316 171.612C158.265 172.932 155.007 167.673 150.508 163.135L120.609 132.792C115.628 127.838 104.158 120.038 107.947 112.227C109.258 109.525 111.122 108.259 113.948 107.257Z"/><path transform="scale(2 2)" d="M393.969 107.257C403.285 107.026 408.34 115.249 401.711 122.267C395.135 129.229 388.136 135.885 381.455 142.731L364.594 159.829C361.062 163.383 355.524 169.776 351.062 171.612C345.665 171.867 340.648 169.294 340.111 163.384C339.661 158.425 346.466 153.473 349.784 150.112L376.877 122.987C381.293 118.538 388.342 109.445 393.969 107.257Z"/><path transform="scale(2 2)" d="M126.521 193.297C131.599 192.856 143.792 199.499 144.918 203.973C146.206 209.089 143.173 213.18 138.366 214.643C126.267 215.978 109.371 198.433 126.521 193.297Z"/><path transform="scale(2 2)" d="M381.631 193.297C394.159 192.078 398.942 206.989 377.917 213.851C369.846 215.943 356.433 202.048 381.631 193.297Z"/><path transform="scale(2 2)" d="M309.15 119.281C323.745 118.595 319.585 140.364 309.15 144.491C293.268 146.105 298.108 122.326 309.15 119.281Z"/><path transform="scale(2 2)" d="M374.7 298.514C383.653 295.792 403.707 311.924 385.813 318.398C370.34 320.115 359.473 299.909 374.7 298.514Z"/><path transform="scale(2 2)" d="M134.872 298.514C141.613 298.359 146.092 304.455 143.224 310.486C141.411 314.297 132.319 318.047 128.535 319.221C118.111 320.795 111.454 304.319 134.872 298.514Z"/><path transform="scale(2 2)" d="M201.939 119.281C209.535 119.395 212.797 129.907 214.306 136.288C213.13 141.038 211.367 143.331 206.445 144.491C196.455 145.25 186.727 122.327 201.939 119.281Z"/><path transform="scale(2 2)" d="M304.969 367.285C317.215 366.681 323.769 386.71 311.881 392.238C300.315 393.617 293.091 371.538 304.969 367.285Z"/><path transform="scale(2 2)" d="M203.956 367.285C219.402 366.461 213.439 388.619 203.956 392.238C190.159 392.891 193.89 380.707 197.808 372.291C199.175 369.354 201.168 368.138 203.956 367.285Z"/></svg>